<?xml version='1.0' encoding='utf-8'?>
<svg xmlns="http://www.w3.org/2000/svg" width="128" height="128" viewBox="0 0 128 128" fill="none">
  <title id="title">QuantaRoute logo</title>
  <desc id="desc">A cyan delivery location pin combined with a quantum atom circuit symbol on a dark background.</desc>
  <rect width="128" height="128" rx="28" fill="#0A0E1A"/>
  <circle cx="64" cy="64" r="45" fill="#111827"/>
  <circle cx="64" cy="64" r="45" stroke="#00D4FF" stroke-opacity="0.28" stroke-width="2"/>
  <path d="M64 22C50.2 22 39 33.2 39 47C39 65.7 64 100 64 100C64 100 89 65.7 89 47C89 33.2 77.8 22 64 22Z" fill="#0A0E1A" stroke="#00D4FF" stroke-width="6" stroke-linejoin="round"/>
  <circle cx="64" cy="47" r="10" fill="#00D4FF"/>
  <ellipse cx="64" cy="64" rx="35" ry="12" stroke="#00D4FF" stroke-width="4"/>
  <ellipse cx="64" cy="64" rx="35" ry="12" stroke="#00D4FF" stroke-width="4" transform="rotate(60 64 64)"/>
  <ellipse cx="64" cy="64" rx="35" ry="12" stroke="#00D4FF" stroke-width="4" transform="rotate(120 64 64)"/>
  <circle cx="64" cy="64" r="5" fill="#00FF88"/>
  <circle cx="32" cy="64" r="4" fill="#00D4FF"/>
  <circle cx="96" cy="64" r="4" fill="#00D4FF"/>
  <circle cx="48" cy="36" r="4" fill="#00D4FF"/>
  <circle cx="80" cy="92" r="4" fill="#00D4FF"/>
</svg>